Coordinates
version=1
nRows=11
nColumns=63
inDegrees=yes

Units are S.I. units (second, meters, Newtons, ...)
If the header above contains a line with 'inDegrees', this indicates whether rotational values are in degrees (yes) or radians (no).

endheader
time	pelvis_tilt	pelvis_list	pelvis_rotation	pelvis_tx	pelvis_ty	pelvis_tz	hip_flexion_r	hip_adduction_r	hip_rotation_r	knee_angle_r	knee_angle_r_beta	ankle_angle_r	subtalar_angle_r	mtp_angle_r	hip_flexion_l	hip_adduction_l	hip_rotation_l	knee_angle_l	knee_angle_l_beta	ankle_angle_l	subtalar_angle_l	mtp_angle_l	L5_S1_Flex_Ext	L5_S1_Lat_Bending	L5_S1_axial_rotation	L4_L5_Flex_Ext	L4_L5_Lat_Bending	L4_L5_axial_rotation	L3_L4_Flex_Ext	L3_L4_Lat_Bending	L3_L4_axial_rotation	L2_L3_Flex_Ext	L2_L3_Lat_Bending	L2_L3_axial_rotation	L1_L2_Flex_Ext	L1_L2_Lat_Bending	L1_L2_axial_rotation	L1_T12_Flex_Ext	L1_T12_Lat_Bending	L1_T12_axial_rotation	Abs_r3	Abs_r2	Abs_r1	Abs_t1	Abs_t2	neck_flexion	neck_bending	neck_rotation	arm_flex_r	arm_add_r	arm_rot_r	elbow_flex_r	pro_sup_r	wrist_flex_r	wrist_dev_r	arm_flex_l	arm_add_l	arm_rot_l	elbow_flex_l	pro_sup_l	wrist_flex_l	wrist_dev_l
      0.00000000	     -2.43781518	     -4.40619559	     85.07348035	      0.21394694	      1.02335654	      0.44917537	      3.53601872	     -2.38046685	      5.86493670	      5.15417901	      0.08995739	     30.64799213	     -0.31840045	      0.00000000	      2.57493700	      0.02372765	     -0.65706961	      3.78721592	      0.06609939	     29.88595094	     -2.43147909	      0.00000000	      0.05752354	     -0.45928030	      1.45425190	      0.10682696	     -0.61084280	      1.54514265	      0.09450542	     -1.11669412	      1.54514265	      0.06574365	     -1.11669412	      1.27247042	      0.05341636	     -0.93656439	      1.18157967	      0.03286895	     -0.71142518	      1.09068893	      0.41088488	     -5.19547061	      8.08811282	      0.00000000	      0.00000000	     21.71073219	      6.22853141	     -5.17941474	      3.99577462	     -9.88820960	     40.79902534	     56.50860017	     70.93039915	      1.56198647	     -2.47865801	     19.80315945	    -12.20300314	     67.48063620	     57.42919487	     45.81260612	    -13.92756867	      0.90800296
      0.01785714	     -2.33986616	     -3.92739327	     84.50988065	      0.21373094	      1.02448138	      0.44846438	      3.07161757	     -2.36068800	      6.66981485	      4.69258321	      0.08190103	     30.59145182	     -0.27482993	      0.00000000	      1.99976399	      0.02126400	     -1.28448163	      3.79474870	      0.06623086	     29.62988558	     -3.15565134	      0.00000000	      0.03897273	     -0.43992650	      1.48798606	      0.07237625	     -0.58510225	      1.58098518	      0.06402829	     -1.06963729	      1.58098518	      0.04454193	     -1.06963729	      1.30198780	      0.03619007	     -0.89709812	      1.20898867	      0.02226902	     -0.68144615	      1.11598954	      0.27837829	     -4.97653656	      8.27573204	      0.00000000	      0.00000000	     20.32633307	      6.38518705	     -4.96817797	      3.81926511	     -9.43468761	     40.54311629	     55.44953155	     69.32846792	      0.94247594	     -0.48746713	     19.13138717	    -11.95903261	     68.11255831	     56.15311379	     45.81371600	    -14.55746882	     -1.14395175
      0.03571429	     -2.22871032	     -3.57042231	     83.40937035	      0.21397189	      1.02518109	      0.44762533	      2.65143973	     -2.29995176	      8.47375325	      3.90631401	      0.06817804	     30.53594218	     -0.85514482	      0.00000000	      1.18188978	      0.05278405	     -1.73608547	      3.07933736	      0.05374458	     29.23575687	     -4.41836813	      0.00000000	      0.03203333	     -0.40877657	      1.61198567	      0.05948910	     -0.54367284	      1.71273477	      0.05262756	     -0.99389936	      1.71273477	      0.03661090	     -0.99389936	      1.41048746	      0.02974615	     -0.83357719	      1.30973836	      0.01830385	     -0.63319491	      1.20898925	      0.22881090	     -4.62416233	      8.96538069	      0.00000000	      0.00000000	     19.44505510	      6.49213619	     -4.30244254	      3.85016992	     -9.54279267	     41.02881501	     55.52646729	     64.98721614	      0.11297511	      3.37563964	     18.74893219	    -11.83734954	     69.38624744	     55.32404520	     44.49305659	    -15.49743531	     -4.77257124
      0.05357143	     -2.14601320	     -3.29502998	     82.97062086	      0.21377547	      1.02580821	      0.44752256	      2.36513954	     -2.19213793	     12.09413479	      3.35171378	      0.05849844	     29.93186658	     -4.90845241	      0.00000000	      0.61466656	      0.10707206	     -0.14232769	      2.45341701	      0.04282020	     28.32868136	     -7.24977640	      0.00000000	      0.00839731	     -0.39292423	      1.64264969	      0.01559464	     -0.52258923	      1.74531530	      0.01379594	     -0.95535597	      1.74531530	      0.00959728	     -0.95535597	      1.43731848	      0.00779774	     -0.80125109	      1.33465288	      0.00479822	     -0.60863963	      1.23198727	      0.05998112	     -4.44483747	      9.13592480	      0.00000000	      0.00000000	     19.26580214	      6.61055501	     -4.01974140	      4.40359762	     -9.97231043	     43.35383908	     55.79648750	     55.74311196	     -2.19502523	      4.39746489	     19.19776933	    -12.00682392	     71.63509100	     55.61717364	     37.76624172	    -16.74033669	     -6.69299182
      0.07142857	     -2.04114804	     -3.11688998	     82.81344626	      0.21380494	      1.02658456	      0.44718195	      2.20027528	     -2.10729928	     12.45689792	      2.95858067	      0.05163697	     30.09375864	     -5.03411396	      0.00000000	      0.43886931	      0.03289176	     -0.16882411	      2.47849774	      0.04325795	     28.28097143	     -7.48118511	      0.00000000	      0.00470325	     -0.38417341	      1.62755047	      0.00873441	     -0.51095064	      1.72927238	      0.00772698	     -0.93407923	      1.72927238	      0.00537535	     -0.93407923	      1.42410666	      0.00436744	     -0.78340642	      1.32238476	      0.00268744	     -0.59508461	      1.22066285	      0.03359487	     -4.34584646	      9.05194746	      0.00000000	      0.00000000	     18.66052247	      6.71635386	     -4.17215509	      4.60162806	     -9.76258110	     43.64054616	     55.39136184	     55.76290610	     -2.22717830	      4.52216221	     19.02592518	    -12.18571268	     71.66681769	     55.70295394	     37.67683085	    -16.79175667	     -6.74766326
      0.08928571	     -2.02469400	     -3.06692035	     82.67472280	      0.21342903	      1.02714854	      0.44753048	      2.32772089	     -2.09956626	     12.44181706	      2.80568567	      0.04896845	     30.22966427	     -5.10675802	      0.00000000	      0.43890050	      0.04375845	     -0.12949710	      2.46318058	      0.04299061	     28.23608047	     -7.45598439	      0.00000000	     -0.00338760	     -0.37790109	      1.62977374	     -0.00629111	     -0.50260845	      1.73163460	     -0.00556548	     -0.91882871	      1.73163460	     -0.00387168	     -0.91882871	      1.42605202	     -0.00314572	     -0.77061591	      1.32419117	     -0.00193567	     -0.58536879	      1.22233031	     -0.02419727	     -4.27489273	      9.06431262	      0.00000000	      0.00000000	     18.56156500	      6.74393285	     -4.18297662	      4.75405165	     -9.72203378	     43.65870101	     55.42561782	     55.77549827	     -2.20546493	      4.54946362	     19.07074752	    -12.21557384	     71.60154663	     55.78205029	     37.62858459	    -16.79286369	     -6.71294947
      0.10714286	     -2.01386827	     -2.80157880	     82.07345889	      0.21441123	      1.02780773	      0.44710919	      1.93721894	     -2.13074581	     13.72378307	      2.00838608	      0.03505295	     30.16863441	     -5.70917251	      0.00000000	     -0.09485443	      0.06119106	     -0.31875663	      2.04749846	      0.03573559	     27.93062356	     -7.75010223	      0.00000000	     -0.02131293	     -0.38036114	      1.61871050	     -0.03958024	     -0.50588032	      1.71987990	     -0.03501501	     -0.92481008	      1.71987990	     -0.02435854	     -0.92481008	      1.41637169	     -0.01979118	     -0.77563244	      1.31520228	     -0.01217821	     -0.58917941	      1.21403287	     -0.15223611	     -4.30272128	      9.00278218	      0.00000000	      0.00000000	     18.04419670	      7.15349257	     -3.31283977	      5.73397186	     -9.70063278	     45.05529795	     55.10368726	     56.83189241	     -1.27015285	      5.56244622	     18.34781700	    -12.71143335	     69.59963929	     57.08106967	     35.35694752	    -17.25341668	     -3.96403991
      0.12500000	     -1.97328456	     -2.79718638	     81.97050753	      0.21431709	      1.02814312	      0.44741066	      2.07085302	     -2.09483537	     13.69685527	      1.85785496	      0.03242569	     30.34905283	     -5.80100749	      0.00000000	     -0.08843925	      0.01996300	     -0.27158416	      2.04176460	      0.03563551	     27.94519276	     -7.72271399	      0.00000000	     -0.02471940	     -0.37584571	      1.62279305	     -0.04590639	     -0.49987480	      1.72421762	     -0.04061150	     -0.91383126	      1.72421762	     -0.02825180	     -0.91383126	      1.41994392	     -0.02295443	     -0.76642458	      1.31851935	     -0.01412466	     -0.58218501	      1.21709479	     -0.17656817	     -4.25164186	      9.02548811	      0.00000000	      0.00000000	     17.95493513	      7.18838697	     -3.29304039	      5.90535907	     -9.63114195	     44.98730593	     55.23042058	     56.87657895	     -1.24189243	      5.53379494	     18.49832508	    -12.70302593	     69.47756039	     57.17195502	     35.31340258	    -17.26712792	     -3.89524010
      0.14285714	     -1.83006330	     -2.80495671	     81.86001967	      0.21444455	      1.02802133	      0.44695458	      1.92524351	     -1.96063239	     15.98786991	      1.39705827	      0.02438327	     29.71276469	     -8.86788082	      0.00000000	     -0.13404931	     -0.15078316	     -0.46185988	      2.10307048	      0.03670550	     28.33309893	     -7.36775164	      0.00000000	     -0.01987072	     -0.35536033	      1.63100230	     -0.03690192	     -0.47262924	      1.73293995	     -0.03264561	     -0.86402311	      1.73293995	     -0.02271025	     -0.86402311	      1.42712701	     -0.01845195	     -0.72465079	      1.32518937	     -0.01135413	     -0.55045316	      1.22325173	     -0.14193459	     -4.01990716	      9.07114551	      0.00000000	      0.00000000	     17.93648303	      7.56689213	     -2.45246019	      5.40001082	     -9.24826956	     42.55033080	     55.36904151	     64.81342300	      0.91561805	      6.27293885	     17.94141315	    -12.69120896	     67.41676741	     58.27253319	     35.67602810	    -18.67523947	      0.39616484
      0.16071429	     -1.79140616	     -2.82129516	     81.81747207	      0.21428784	      1.02788636	      0.44708599	      1.96992423	     -1.94359319	     15.39319964	      1.42176576	      0.02481449	     29.89553689	     -8.23706868	      0.00000000	     -0.03846932	     -0.22922758	     -1.78436718	      2.34681063	      0.04095957	     29.03735630	     -5.48242995	      0.00000000	     -0.02305849	     -0.34688611	      1.67390957	     -0.04282191	     -0.46135852	      1.77852892	     -0.03788279	     -0.84341888	      1.77852892	     -0.02635354	     -0.84341888	      1.46467087	     -0.02141211	     -0.70737015	      1.36005152	     -0.01317562	     -0.53732658	      1.25543218	     -0.16470446	     -3.92404501	      9.30978285	      0.00000000	      0.00000000	     18.02922122	      7.50802899	     -2.42507075	      4.87416640	     -8.94983103	     40.52605338	     55.70834056	     68.75182977	      1.75669880	      6.75778434	     18.16172512	    -12.49215679	     67.24810267	     58.38060181	     35.20861014	    -18.78942954	      1.66802552
      0.17857143	     -1.74114494	     -2.83562033	     81.92190437	      0.21395204	      1.02754735	      0.44703346	      1.89129106	     -1.90373832	     16.23661119	      1.43469812	      0.02504021	     29.37393749	     -9.84449931	      0.00000000	     -0.00667924	     -0.28557376	     -1.50633164	      2.45871014	      0.04291259	     29.27502723	     -5.59954470	      0.00000000	     -0.02381667	     -0.33326189	      1.66687238	     -0.04422995	     -0.44323832	      1.77105191	     -0.03912841	     -0.81029297	      1.77105191	     -0.02722008	     -0.81029297	      1.45851333	     -0.02211616	     -0.67958765	      1.35433381	     -0.01360885	     -0.51622267	      1.25015429	     -0.17012013	     -3.76992519	      9.27064413	      0.00000000	      0.00000000	     18.13494521	      7.30196517	     -2.34929316	      4.37549516	     -8.68960485	     38.91598960	     56.11731795	     71.28444066	      2.11955579	      7.39995780	     18.19657650	    -12.31128219	     66.88829795	     58.43791435	     34.91775856	    -18.85649050	      2.58755869
